<svg xmlns="http://www.w3.org/2000/svg" viewBox="0 0 64 64" id="working"><path d="M47.65,33.241A.994.994,0,0,0,47,33H46V30a7.009,7.009,0,0,0-7-7H36.46a6,6,0,1,0-8.92,0H25a7.009,7.009,0,0,0-7,7v3H17a.994.994,0,0,0-.65.241l-14,12A1,1,0,0,0,3,47H6v3a1,1,0,0,0,1,1h4a1,1,0,0,0,1-1V47H52v3a1,1,0,0,0,1,1h4a1,1,0,0,0,1-1V47h3a1,1,0,0,0,.65-1.759ZM32,15a4,4,0,1,1-4,4A4,4,0,0,1,32,15ZM20,30a5.006,5.006,0,0,1,5-5H39a5.006,5.006,0,0,1,5,5v3H42V31a3,3,0,0,0-3-3H25a3,3,0,0,0-3,3v2H20Zm20,1v7H24V31a1,1,0,0,1,1-1H39A1,1,0,0,1,40,31ZM10,49H8V47h2Zm46,0H54V47h2ZM5.7,45,17.37,35H22v4a1,1,0,0,0,1,1H41a1,1,0,0,0,1-1V35h4.63L58.3,45Z"></path><circle cx="32" cy="33" r="1"></circle></svg>