<svg xmlns="http://www.w3.org/2000/svg" viewBox="0 0 64 64" id="working-schedule"><path d="M35.08,49H6a5,5,0,0,1-5-5V11.12A5,5,0,0,1,6,6.17H45.37a5,5,0,0,1,5,4.95V32.36a1,1,0,0,1-2,0V11.12a3,3,0,0,0-3-2.95H6a3,3,0,0,0-3,2.95V44a3,3,0,0,0,3,3H35.08a1,1,0,0,1,0,2Z"></path><path d="M49.33 18.9H2a1 1 0 010-2H49.33a1 1 0 010 2zM14.49 31H8.86a1 1 0 01-1-1V24.41a1 1 0 011-1h5.63a1 1 0 011 1V30A1 1 0 0114.49 31zM9.86 29h3.63V25.41H9.86zM27.16 31H21.53a1 1 0 01-1-1V24.41a1 1 0 011-1h5.63a1 1 0 011 1V30A1 1 0 0127.16 31zm-4.63-2h3.63V25.41H22.53zM39.83 31H34.2a1 1 0 01-1-1V24.41a1 1 0 011-1h5.63a1 1 0 011 1V30A1 1 0 0139.83 31zM35.2 29h3.63V25.41H35.2zM14.49 41.77H8.86a1 1 0 01-1-1V35.14a1 1 0 011-1h5.63a1 1 0 011 1v5.63A1 1 0 0114.49 41.77zm-4.63-2h3.63V36.14H9.86zM27.16 41.77H21.53a1 1 0 01-1-1V35.14a1 1 0 011-1h5.63a1 1 0 011 1v5.63A1 1 0 0127.16 41.77zm-4.63-2h3.63V36.14H22.53zM48.45 60.42A14.55 14.55 0 1163 45.88 14.56 14.56 0 0148.45 60.42zm0-27.09A12.55 12.55 0 1061 45.88 12.56 12.56 0 0048.45 33.33z"></path><path d="M48.45 37.64a1 1 0 01-1-1V36a1 1 0 112 0v.65A1 1 0 0148.45 37.64zM48.45 56.76a1 1 0 01-1-1v-.65a1 1 0 012 0v.65A1 1 0 0148.45 56.76zM58.34 46.88h-.65a1 1 0 010-2h.65a1 1 0 010 2zM39.22 46.88h-.65a1 1 0 010-2h.65a1 1 0 010 2zM55 40.35a1 1 0 01-.71-.3 1 1 0 010-1.41l.46-.46a1 1 0 011.42 0 1 1 0 010 1.41l-.46.46A1 1 0 0155 40.35zM41.46 53.86a1 1 0 01-.7-.29 1 1 0 010-1.41l.46-.46a1 1 0 011.41 1.41l-.46.46A1 1 0 0141.46 53.86zM55.44 53.86a1 1 0 01-.71-.29l-.46-.46a1 1 0 010-1.41 1 1 0 011.42 0l.46.46a1 1 0 010 1.41A1 1 0 0155.44 53.86zM41.92 40.35a1 1 0 01-.7-.3l-.47-.46a1 1 0 011.42-1.41l.46.46a1 1 0 010 1.41A1 1 0 0141.92 40.35zM54.46 46.88h-6a1 1 0 01-1-1V40.77a1 1 0 112 0v4.11h5a1 1 0 010 2zM11.62 11a1 1 0 01-1-1V4.58a1 1 0 012 0V10A1 1 0 0111.62 11zM21 11a1 1 0 01-1-1V4.58a1 1 0 012 0V10A1 1 0 0121 11zM30.35 11a1 1 0 01-1-1V4.58a1 1 0 112 0V10A1 1 0 0130.35 11zM39.72 11a1 1 0 01-1-1V4.58a1 1 0 112 0V10A1 1 0 0139.72 11z"></path></svg>